<svg width="154" height="117" viewBox="0 0 154 117" fill="none" xmlns="http://www.w3.org/2000/svg">
<g filter="url(#filter0_d_48_110)">
<ellipse cx="58.5" cy="50" rx="58.5" ry="50" transform="matrix(0.999959 -0.00912915 0.00879773 0.99996 -0.000247002 5.25497)" fill="#F6F5F0"/>
</g>
<path d="M89.5996 56.2531C90.1829 55.6646 90.1789 54.7149 89.5906 54.1318L80.0044 44.6295C79.4161 44.0464 78.4664 44.0507 77.8831 44.6392C77.2998 45.2276 77.3038 46.1774 77.892 46.7605L86.4132 55.2069L77.9639 63.7309C77.3806 64.3193 77.3846 65.2691 77.9729 65.8522C78.5611 66.4353 79.5109 66.431 80.0942 65.8425L89.5996 56.2531ZM24.5414 56.9894L88.5408 56.6972L88.5281 53.6973L24.5287 53.9894L24.5414 56.9894Z" fill="black"/>
<defs>
<filter id="filter0_d_48_110" x="0.43795" y="0.718018" width="152.999" height="116.002" filterUnits="userSpaceOnUse" color-interpolation-filters="sRGB">
<feFlood flood-opacity="0" result="BackgroundImageFix"/>
<feColorMatrix in="SourceAlpha" type="matrix" values="0 0 0 0 0 0 0 0 0 0 0 0 0 0 0 0 0 0 127 0" result="hardAlpha"/>
<feOffset dx="28" dy="4"/>
<feGaussianBlur stdDeviation="4"/>
<feComposite in2="hardAlpha" operator="out"/>
<feColorMatrix type="matrix" values="0 0 0 0 0 0 0 0 0 0 0 0 0 0 0 0 0 0 0.25 0"/>
<feBlend mode="normal" in2="BackgroundImageFix" result="effect1_dropShadow_48_110"/>
<feBlend mode="normal" in="SourceGraphic" in2="effect1_dropShadow_48_110" result="shape"/>
</filter>
</defs>
</svg>
