<svg width="153" height="81" viewBox="0 0 153 81" fill="none" xmlns="http://www.w3.org/2000/svg">
<ellipse cx="75.5" cy="39" rx="75.5" ry="39" transform="matrix(0.999994 -0.00408944 0.00489045 0.999986 0.349365 1.36444)" fill="#F6F5F0"/>
<path d="M25.4853 44.7055C24.9112 45.3023 24.93 46.2519 25.5273 46.8265L35.2601 56.1895C35.8574 56.7641 36.807 56.7461 37.3811 56.1493C37.9551 55.5525 37.9364 54.6029 37.3391 54.0284L28.6877 45.7056L37.0035 37.0609C37.5776 36.4641 37.5589 35.5146 36.9616 34.94C36.3643 34.3654 35.4148 34.3835 34.8407 34.9803L25.4853 44.7055ZM126.518 42.3489L26.5371 44.2462L26.5964 47.2456L126.577 45.3484L126.518 42.3489Z" fill="black"/>
</svg>
