<svg width="292" height="177" viewBox="0 0 292 177" fill="none" xmlns="http://www.w3.org/2000/svg">
<g filter="url(#filter0_d_84_2)">
<path d="M255.106 84.2118C255.322 128.394 198.414 164.444 127.998 164.732C57.5826 165.02 0.324107 129.437 0.108033 85.2546C-0.108041 41.0724 56.8001 5.02227 127.216 4.7343C197.632 4.44634 254.89 40.0296 255.106 84.2118Z" fill="#F6F5F0"/>
<path d="M254.606 84.2138C254.713 106.071 240.689 125.992 217.772 140.51C194.861 155.023 163.125 164.088 127.996 164.232C92.8672 164.376 61.0439 155.571 37.992 141.245C14.9332 126.915 0.714924 107.11 0.60803 85.2526C0.501136 63.3951 14.5252 43.4744 37.4428 28.9566C60.3537 14.443 92.0896 5.37795 127.218 5.2343C162.347 5.09064 194.17 13.8957 217.222 28.2214C240.281 42.5512 254.5 62.3564 254.606 84.2138Z" stroke="#1E1E1E"/>
</g>
<defs>
<filter id="filter0_d_84_2" x="0.107422" y="0.732574" width="291" height="176.001" filterUnits="userSpaceOnUse" color-interpolation-filters="sRGB">
<feFlood flood-opacity="0" result="BackgroundImageFix"/>
<feColorMatrix in="SourceAlpha" type="matrix" values="0 0 0 0 0 0 0 0 0 0 0 0 0 0 0 0 0 0 127 0" result="hardAlpha"/>
<feOffset dx="28" dy="4"/>
<feGaussianBlur stdDeviation="4"/>
<feComposite in2="hardAlpha" operator="out"/>
<feColorMatrix type="matrix" values="0 0 0 0 0 0 0 0 0 0 0 0 0 0 0 0 0 0 0.25 0"/>
<feBlend mode="normal" in2="BackgroundImageFix" result="effect1_dropShadow_84_2"/>
<feBlend mode="normal" in="SourceGraphic" in2="effect1_dropShadow_84_2" result="shape"/>
</filter>
</defs>
</svg>
